<?xml version="1.0" encoding="utf-8"?>
<!-- Generator: Adobe Illustrator 21.1.0, SVG Export Plug-In . SVG Version: 6.00 Build 0)  -->
<svg version="1.1" id="Layer_1" xmlns="http://www.w3.org/2000/svg" xmlns:xlink="http://www.w3.org/1999/xlink" x="0px" y="0px"
	 viewBox="0 0 144.1 149.4" style="enable-background:new 0 0 144.1 149.4;" xml:space="preserve">
<style type="text/css">
	.st0{fill:#80CBB4;}
</style>
<g>
	<path class="st0" d="M144,106.8c-0.1-0.5-0.2-0.9-0.4-1.3c0-0.1-0.1-0.1-0.1-0.2c-0.2-0.4-0.5-0.8-0.8-1.1c0,0,0-0.1-0.1-0.1
		c-0.3-0.3-0.7-0.6-1.2-0.8l-0.1-0.1L83.1,74.5c-1.5-0.7-3.2-0.6-4.6,0.2c-1.4,0.9-2.2,2.4-2.2,4v24h-3.1L6.9,70
		c-1.5-0.7-3.2-0.6-4.6,0.2c-1.4,0.9-2.2,2.4-2.2,4v48.4c0,2,1.3,3.8,3.2,4.5l67.3,22.1l0,0c0.5,0.2,1,0.2,1.5,0.2s1-0.1,1.5-0.2
		l0,0l67.3-22.1c1.9-0.6,3.2-2.4,3.2-4.5v-15.1c0-0.1,0-0.2,0-0.4C144,107,144,106.9,144,106.8z M85.9,86.3l33.3,16.4H85.9V86.3z
		 M9.5,81.8l57.9,28.6v27.8l-57.9-19V81.8z M134.7,119.2l-57.9,19v-26.1h4.4h53.5V119.2z"/>
	<path class="st0" d="M140.8,22.3L73.5,0.2c-0.1,0-0.2,0-0.4-0.1c-0.2,0-0.4-0.1-0.5-0.1c-0.2,0-0.4,0-0.6,0s-0.4,0-0.6,0
		S71,0.1,70.9,0.1s-0.3,0-0.4,0.1L3.2,22.3C1.3,22.9,0,24.7,0,26.8v15.1c0,0.1,0,0.2,0,0.4c0,0.1,0,0.2,0,0.3
		c0.1,0.5,0.2,0.9,0.4,1.3c0,0.1,0.1,0.1,0.1,0.2c0.2,0.4,0.5,0.8,0.8,1.1c0,0,0,0.1,0.1,0.1c0.3,0.3,0.7,0.6,1.2,0.8l0.1,0.1
		l58.2,28.7c0.7,0.3,1.4,0.5,2.1,0.5c0.9,0,1.7-0.2,2.5-0.7c1.4-0.9,2.2-2.4,2.2-4v-24H71l66.3,32.7c0.7,0.3,1.4,0.5,2.1,0.5
		c0.9,0,1.7-0.2,2.5-0.7c1.4-0.9,2.2-2.4,2.2-4V26.8C144.1,24.7,142.8,22.9,140.8,22.3z M9.5,30.1l57.9-19v26.1H63H9.5V30.1z
		 M58.2,63L24.9,46.6h33.3V63z M134.7,67.5L76.8,38.9V11.1l57.9,19V67.5z"/>
</g>
</svg>
